<svg width="40" height="40" viewBox="0 0 40 40" fill="none" xmlns="http://www.w3.org/2000/svg">
<path d="M22 35.84C25.6 35.4 28.7 33.9 31.3 31.3C33.9 28.7 35.4 25.6 35.84 22H29.84C29.4 24 28.48 25.68 27.08 27.08C25.68 28.48 24 29.4 22 29.84V35.84ZM16 12H24L30 18H35.84C35.34 14.1 33.58 10.76 30.54 8C27.52 5.32 24 4 20 4C16 4 12.48 5.32 9.46 8C6.42 10.76 4.66 14.1 4.16 18H10L16 12ZM18 35.84V29.84C16 29.4 14.32 28.48 12.92 27.08C11.52 25.68 10.6 24 10.16 22H4.16C4.6 25.54 6.1 28.6 8.7 31.2C11.3 33.8 14.4 35.34 18 35.84ZM20 0C25.5 0 30.2 2 34.1 5.9C38 9.8 40 14.5 40 20C40 25.5 38 30.2 34.1 34.1C30.2 38 25.5 40 20 40C14.5 40 9.8 38 5.9 34.1C2 30.2 0 25.5 0 20C0 14.5 2 9.8 5.9 5.9C9.8 2 14.5 0 20 0Z" fill="white"/>
</svg>
