<svg width="40" height="32" viewBox="0 0 40 32" fill="none" xmlns="http://www.w3.org/2000/svg">
<path d="M3.47826 0H33.0435C33.966 0 34.8507 0.365465 35.503 1.016C36.1553 1.66653 36.5217 2.54884 36.5217 3.46883V6.93767H29.5652V3.46883H6.95652V24.2818H22.6087V27.7507H3.47826C2.55577 27.7507 1.67106 27.3852 1.01876 26.7347C0.366459 26.0841 0 25.2018 0 24.2818V3.46883C0 2.54884 0.366459 1.66653 1.01876 1.016C1.67106 0.365465 2.55577 0 3.47826 0ZM27.8261 10.4065H38.2609C38.7221 10.4065 39.1645 10.5892 39.4906 10.9145C39.8168 11.2398 40 11.6809 40 12.1409V29.4851C40 29.9451 39.8168 30.3862 39.4906 30.7115C39.1645 31.0368 38.7221 31.2195 38.2609 31.2195H27.8261C27.3648 31.2195 26.9225 31.0368 26.5963 30.7115C26.2702 30.3862 26.087 29.9451 26.087 29.4851V12.1409C26.087 11.6809 26.2702 11.2398 26.5963 10.9145C26.9225 10.5892 27.3648 10.4065 27.8261 10.4065ZM29.5652 13.8753V26.0163H36.5217V13.8753H29.5652Z" fill="white"/>
</svg>
