<svg width="40" height="34" viewBox="0 0 40 34" fill="none" xmlns="http://www.w3.org/2000/svg">
<path d="M27.3852 33.2333H12.6148C12.1251 33.2333 11.6555 33.0388 11.3093 32.6926C10.963 32.3463 10.7685 31.8767 10.7685 31.387V16.7459L8.36834 18.5922C7.64828 19.3123 6.48511 19.3123 5.76506 18.5922L0.540042 13.4595C-0.180014 12.7394 -0.180014 11.5763 0.540042 10.8562L11.3963 0H14.4611C14.4611 2.03093 16.9351 3.69259 20 3.69259C23.0648 3.69259 25.5389 2.03093 25.5389 0H28.6037L39.46 10.8562C40.18 11.5763 40.18 12.7394 39.46 13.4595L34.2349 18.6845C33.5149 19.3861 32.3517 19.3861 31.6317 18.6845L29.2315 16.8382V31.387C29.2315 31.8767 29.037 32.3463 28.6907 32.6926C28.3445 33.0388 27.8748 33.2333 27.3852 33.2333Z" fill="white"/>
</svg>
