<svg width="40" height="19" viewBox="0 0 40 19" fill="none" xmlns="http://www.w3.org/2000/svg">
<path d="M9.09091 0H30.9091C32.1029 0 33.2851 0.235143 34.388 0.692004C35.491 1.14887 36.4932 1.8185 37.3373 2.66267C38.1815 3.50683 38.8511 4.50901 39.308 5.61197C39.7649 6.71493 40 7.89707 40 9.09091C40 10.2847 39.7649 11.4669 39.308 12.5698C38.8511 13.6728 38.1815 14.675 37.3373 15.5192C36.4932 16.3633 35.491 17.033 34.388 17.4898C33.2851 17.9467 32.1029 18.1818 30.9091 18.1818C27.9273 18.1818 25.2909 16.7455 23.6364 14.5455H16.3636C14.7091 16.7455 12.0727 18.1818 9.09091 18.1818C7.89707 18.1818 6.71493 17.9467 5.61197 17.4898C4.50901 17.033 3.50683 16.3633 2.66267 15.5192C0.957789 13.8143 0 11.502 0 9.09091C0 6.67985 0.957789 4.36754 2.66267 2.66267C4.36754 0.957789 6.67985 0 9.09091 0ZM34.0909 4.54545C33.4881 4.54545 32.9101 4.7849 32.4838 5.21112C32.0576 5.63734 31.8182 6.21542 31.8182 6.81818C31.8182 7.11664 31.877 7.41218 31.9912 7.68792C32.1054 7.96366 32.2728 8.2142 32.4838 8.42524C32.6949 8.63628 32.9454 8.80369 33.2212 8.91791C33.4969 9.03212 33.7924 9.09091 34.0909 9.09091C34.3894 9.09091 34.6849 9.03212 34.9606 8.91791C35.2364 8.80369 35.4869 8.63628 35.698 8.42524C35.909 8.2142 36.0764 7.96366 36.1906 7.68792C36.3049 7.41218 36.3636 7.11664 36.3636 6.81818C36.3636 6.21542 36.1242 5.63734 35.698 5.21112C35.2718 4.7849 34.6937 4.54545 34.0909 4.54545ZM29.5455 9.09091C28.9427 9.09091 28.3646 9.33036 27.9384 9.75658C27.5122 10.1828 27.2727 10.7609 27.2727 11.3636C27.2727 11.9664 27.5122 12.5445 27.9384 12.9707C28.3646 13.3969 28.9427 13.6364 29.5455 13.6364C30.1482 13.6364 30.7263 13.3969 31.1525 12.9707C31.5787 12.5445 31.8182 11.9664 31.8182 11.3636C31.8182 10.7609 31.5787 10.1828 31.1525 9.75658C30.7263 9.33036 30.1482 9.09091 29.5455 9.09091ZM7.27273 3.63636V7.27273H3.63636V10.9091H7.27273V14.5455H10.9091V10.9091H14.5455V7.27273H10.9091V3.63636H7.27273Z" fill="white"/>
</svg>
